M48
; DRILL file {KiCad 7.0.5} date Sat Mar 23 17:29:48 2024
; FORMAT={-:-/ absolute / metric / decimal}
; #@! TF.CreationDate,2024-03-23T17:29:48+04:00
; #@! TF.GenerationSoftware,Kicad,Pcbnew,7.0.5
; #@! TF.FileFunction,Plated,1,2,PTH
FMAT,2
METRIC
; #@! TA.AperFunction,Plated,PTH,ComponentDrill
T1C0.730
; #@! TA.AperFunction,Plated,PTH,ComponentDrill
T2C0.800
; #@! TA.AperFunction,Plated,PTH,ComponentDrill
T3C1.000
; #@! TA.AperFunction,Plated,PTH,ComponentDrill
T4C1.020
; #@! TA.AperFunction,Plated,PTH,ComponentDrill
T5C1.100
; #@! TA.AperFunction,Plated,PTH,ComponentDrill
T6C1.200
; #@! TA.AperFunction,Plated,PTH,ComponentDrill
T7C1.520
%
G90
G05
T1
X87.63Y96.52
X87.63Y99.06
X87.63Y101.6
X95.25Y96.52
X95.25Y99.06
X95.25Y101.6
T2
X101.6Y139.7
X101.6Y147.32
X104.14Y139.7
X104.14Y147.32
T3
X57.15Y171.45
X57.15Y178.95
X76.2Y120.65
X76.2Y123.19
X76.2Y125.73
X76.2Y128.27
X76.2Y130.81
X76.2Y133.35
X76.2Y135.89
X76.2Y138.43
X76.2Y140.97
X76.2Y143.51
X76.2Y146.05
X76.2Y148.59
X76.2Y151.13
X76.2Y153.67
X76.2Y156.21
X91.44Y120.65
X91.44Y123.19
X91.44Y125.73
X91.44Y128.27
X91.44Y130.81
X91.44Y133.35
X91.44Y135.89
X91.44Y138.43
X91.44Y140.97
X91.44Y143.51
X91.44Y146.05
X91.44Y148.59
X91.44Y151.13
X91.44Y153.67
X91.44Y156.21
X106.8Y171.45
X114.3Y171.45
T4
X85.09Y171.45
X87.63Y171.45
X90.17Y171.45
X92.71Y171.45
X95.25Y171.45
X97.79Y171.45
T5
X71.12Y171.45
X73.66Y171.45
X76.2Y171.45
X101.6Y95.25
X104.14Y95.25
X104.14Y103.7
X104.14Y107.95
X104.14Y116.4
X104.14Y120.65
X106.68Y95.25
X114.3Y103.7
X114.3Y107.95
X114.3Y116.4
X114.3Y120.65
T6
X63.5Y127.0
X63.5Y142.24
X63.5Y149.86
X63.5Y165.1
X73.66Y107.95
X88.9Y107.95
X101.6Y127.0
X101.6Y133.35
X116.84Y127.0
X116.84Y133.35
T7
X77.47Y190.5
X82.55Y190.5
X90.17Y82.55
X95.25Y82.55
X127.0Y121.92
X127.0Y127.0
T0
M30
